<svg xmlns="http://www.w3.org/2000/svg" xmlns:xlink="http://www.w3.org/1999/xlink" id="Capa_1" x="0px" y="0px" width="45.726px" height="45.725px" viewBox="0 0 45.726 45.725" style="enable-background:new 0 0 45.726 45.725;" xml:space="preserve">
<g>
	<g>
		<g>
			<path d="M45.726,30.36V10.597c0-4.295-3.536-7.762-7.832-7.762H7.82C3.525,2.834,0,6.302,0,10.597V30.36     c0,2.625,1.322,4.954,3.318,6.365l-0.24,0.004c-0.004,0-0.008,0-0.01,0c-1.672,0-3.033,1.349-3.037,3.022     c-0.006,1.677,1.35,3.024,3.027,3.03l39.479,0.109c0.006,0,0.008,0,0.012,0c1.672,0,3.031-1.338,3.037-3.013     c0.004-1.678-1.352-3.034-3.027-3.04l-0.336,0.002C44.318,35.445,45.726,33.063,45.726,30.36z M3.945,10.597     c0-2.106,1.768-3.818,3.875-3.818h30.074c2.105,0,3.765,1.712,3.765,3.818V30.36c0,2.105-1.658,3.781-3.765,3.781H7.82     c-2.107,0-3.875-1.676-3.875-3.781V10.597z"></path>
		</g>
		<path d="M11.509,28.958c1.828,0,3.311-1.482,3.311-3.311c0-0.504-0.115-0.982-0.316-1.41l3.82-4.305    c0.354,0.128,0.732,0.198,1.129,0.198c0.715,0,1.377-0.228,1.918-0.612l4.509,3.073c-0.017,0.133-0.026,0.27-0.026,0.408    c0,1.828,1.481,3.311,3.311,3.311c1.828,0,3.311-1.482,3.311-3.311c0-0.378-0.064-0.741-0.182-1.079l4.238-5.335    c0.52-0.655,0.41-1.608-0.246-2.128c-0.654-0.519-1.607-0.411-2.127,0.245l-4.066,5.12c-0.295-0.086-0.605-0.133-0.928-0.133    c-0.57,0-1.107,0.144-1.576,0.399l-4.825-3.287c-0.011-1.819-1.488-3.291-3.311-3.291c-1.827,0-3.31,1.482-3.31,3.31    c0,0.303,0.041,0.595,0.117,0.874l-4.167,4.696c-0.189-0.034-0.385-0.052-0.584-0.052c-1.828,0-3.312,1.481-3.312,3.31    S9.681,28.958,11.509,28.958z"></path>
	</g>
</g>
<g>
</g>
<g>
</g>
<g>
</g>
<g>
</g>
<g>
</g>
<g>
</g>
<g>
</g>
<g>
</g>
<g>
</g>
<g>
</g>
<g>
</g>
<g>
</g>
<g>
</g>
<g>
</g>
<g>
</g>
</svg>